HIERARCHY
ROOT Hips
{
	OFFSET 0.000000 0.000000 0.000000
	CHANNELS 6 Xposition Yposition Zposition Zrotation Yrotation Xrotation 
	JOINT LeftUpLeg_virtual
	{
		OFFSET 0.000000 0.000000 0.000000
		CHANNELS 3 Zrotation Yrotation Xrotation
		JOINT LeftUpLeg
		{
			OFFSET 10.205400 -3.823500 0.155100
			CHANNELS 3 Zrotation Yrotation Xrotation
			JOINT LeftLeg
			{
				OFFSET 0.708757 -12.982077 0.567790
				CHANNELS 3 Zrotation Yrotation Xrotation
				JOINT LeftFoot
				{
					OFFSET -0.708756 -10.717838 -2.184338
					CHANNELS 3 Zrotation Yrotation Xrotation
					JOINT LeftToeBase
					{
						OFFSET 0.108149 -7.191104 7.560241
						CHANNELS 3 Zrotation Yrotation Xrotation
						End Site
						{
							OFFSET 0.000000 0.000000 0.000000
						}
					}
				}
			}
		}
	}
	JOINT RightUpLeg_virtual
	{
		OFFSET 0.000000 0.000000 0.000000
		CHANNELS 3 Zrotation Yrotation Xrotation
		JOINT RightUpLeg
		{
			OFFSET -10.205400 -3.823500 0.005500
			CHANNELS 3 Zrotation Yrotation Xrotation
			JOINT RightLeg
			{
				OFFSET -0.708756 -12.982134 0.610632
				CHANNELS 3 Zrotation Yrotation Xrotation
				JOINT RightFoot
				{
					OFFSET 0.708754 -10.717769 -1.945823
					CHANNELS 3 Zrotation Yrotation Xrotation
					JOINT RightToeBase
					{
						OFFSET -0.108140 -7.191069 7.372968
						CHANNELS 3 Zrotation Yrotation Xrotation
						End Site
						{
							OFFSET 0.000000 0.000000 0.000000
						}
					}
				}
			}
		}
	}
	JOINT Spine_virtual
	{
		OFFSET 0.000000 0.000000 0.000000
		CHANNELS 3 Zrotation Yrotation Xrotation
		JOINT Spine
		{
			OFFSET 0.000000 6.876099 0.125700
			CHANNELS 3 Zrotation Yrotation Xrotation
			JOINT Spine1
			{
				OFFSET 0.000000 8.022060 0.146608
				CHANNELS 3 Zrotation Yrotation Xrotation
				JOINT Spine2
				{
					OFFSET 0.000000 9.168068 0.167552
					CHANNELS 3 Zrotation Yrotation Xrotation
					JOINT Neck_virtual
					{
						OFFSET 0.000000 0.000000 0.000000
						CHANNELS 3 Zrotation Yrotation Xrotation
						JOINT Neck
						{
							OFFSET 0.000000 10.314075 0.188496
							CHANNELS 3 Zrotation Yrotation Xrotation
							JOINT Head
							{
								OFFSET 0.000000 7.643700 -2.377400
								CHANNELS 3 Zrotation Yrotation Xrotation
								End Site
								{
									OFFSET 0.000000 0.000000 0.000000
								}
							}
						}
					}
					JOINT LeftShoulder_virtual
					{
						OFFSET 0.000000 0.000000 0.000000
						CHANNELS 3 Zrotation Yrotation Xrotation
						JOINT LeftShoulder
						{
							OFFSET 4.392200 8.824978 0.174984
							CHANNELS 3 Zrotation Yrotation Xrotation
							JOINT LeftArm
							{
								OFFSET 8.771219 -2.981674 -0.026999
								CHANNELS 3 Zrotation Yrotation Xrotation
								JOINT LeftForeArm
								{
									OFFSET 8.512804 0.000000 -0.000000
									CHANNELS 3 Zrotation Yrotation Xrotation
									JOINT LeftHand
									{
										OFFSET 18.484802 0.000000 -0.000000
										CHANNELS 3 Zrotation Yrotation Xrotation
										End Site
										{
											OFFSET 0.000000 0.000000 0.000000
										}
									}
								}
							}
						}
					}
					JOINT RightShoulder_virtual
					{
						OFFSET 0.000000 0.000000 0.000000
						CHANNELS 3 Zrotation Yrotation Xrotation
						JOINT RightShoulder
						{
							OFFSET -4.392200 8.824993 0.141379
							CHANNELS 3 Zrotation Yrotation Xrotation
							JOINT RightArm
							{
								OFFSET -8.771282 -2.981682 -0.094208
								CHANNELS 3 Zrotation Yrotation Xrotation
								JOINT RightForeArm
								{
									OFFSET -8.494598 0.000000 0.000000
									CHANNELS 3 Zrotation Yrotation Xrotation
									JOINT RightHand
									{
										OFFSET -18.483803 0.000000 0.000001
										CHANNELS 3 Zrotation Yrotation Xrotation
										End Site
										{
											OFFSET 0.000000 0.000000 0.000000
										}
									}
								}
							}
						}
					}
				}
			}
		}
	}
}
MOTION
Frames: 7
Frame Time: 0.033333
-0.827852 36.471283 31.177746 -179.899915 1.562101 -179.973080 -2.209794 -4.234810 9.434641 -10.332218 -0.590849 -16.927748 11.788564 8.463103 16.641787 -1.558361 -2.825427 10.580126 0.000000 0.000000 0.000000 2.923298 -2.015105 6.755120 -3.740276 5.324614 -12.694715 -7.796757 2.296982 18.090427 6.939256 4.722144 7.726592 0.000000 0.000000 0.000000 1.390429 -0.163080 -3.070937 -4.709129 4.222381 -4.953837 -0.527764 -3.120570 2.810363 0.006682 0.010002 0.033598 -1.153882 -1.229813 5.035394 0.274742 -1.121772 6.205754 0.000000 0.000000 0.000000 0.293592 -0.462016 2.352067 3.800468 0.265067 -4.564270 -7.215360 23.550661 -37.840361 -2.548312 -42.802487 -3.833114 0.000000 0.000000 0.000000 -3.088841 0.193888 1.958105 9.700680 -9.746266 -8.599790 19.757152 -30.124645 -34.414021 -1.092469 38.045318 -4.321852 0.000000 0.000000 0.000000 
-0.831158 36.475414 31.173311 -179.932181 1.532151 -179.860410 -2.193723 -4.349232 9.473545 -10.539948 -0.427467 -16.934073 11.635600 8.892069 16.829067 -1.645527 -2.873661 10.512040 0.000000 0.000000 0.000000 2.872734 -1.856527 6.797673 -3.693245 5.221132 -12.631077 -7.935321 2.092959 18.341127 6.671317 4.399179 7.852774 0.000000 0.000000 0.000000 1.347692 -0.172395 -3.128381 -4.728116 4.194397 -5.011406 -0.543025 -3.159591 2.825812 0.009787 -0.026108 0.030315 -1.154312 -1.149035 5.046939 0.262573 -1.144867 6.127966 0.000000 0.000000 0.000000 0.310805 -0.430786 2.373541 3.783738 0.276012 -4.272751 -7.313756 23.542199 -37.877173 -2.393326 -42.780265 -3.968208 0.000000 0.000000 0.000000 -3.068326 0.237455 2.007542 9.714926 -9.686488 -8.729650 19.670118 -30.125157 -34.242983 -1.099611 38.074097 -4.336347 0.000000 0.000000 0.000000 
-0.836746 36.477726 31.171352 -179.912073 1.474884 -179.918398 -2.187340 -4.381805 9.492574 -10.547540 -0.469331 -16.930388 11.675859 8.902722 16.883705 -1.652361 -2.862077 10.475618 0.000000 0.000000 0.000000 2.895018 -1.883415 6.837144 -3.740549 5.211529 -12.590266 -7.949897 2.029717 18.322425 6.667202 4.416831 7.834759 0.000000 0.000000 0.000000 1.352795 -0.060986 -3.024973 -4.727921 4.373973 -4.988167 -0.525310 -3.258653 2.794749 0.028802 -0.173434 0.046880 -1.150062 -1.153728 5.022545 0.328897 -1.116655 6.183770 0.000000 0.000000 0.000000 0.265098 -0.453767 2.408861 3.740157 0.240525 -4.420408 -7.363165 23.524532 -37.787243 -2.430453 -42.678843 -3.886583 0.000000 0.000000 0.000000 -3.103567 0.218210 1.967486 9.713454 -9.729164 -8.541769 19.768485 -30.160575 -34.281990 -1.265060 38.060485 -4.471619 0.000000 0.000000 0.000000 
-0.844529 36.479885 31.165703 -179.887362 1.416555 -179.937003 -2.163406 -4.419105 9.515795 -10.556904 -0.491609 -16.914627 11.693633 8.899935 16.896046 -1.642011 -2.828122 10.510754 0.000000 0.000000 0.000000 2.942909 -1.916911 6.857960 -3.767378 5.224110 -12.563413 -7.950878 2.056506 18.287896 6.664673 4.427660 7.844471 0.000000 0.000000 0.000000 1.355467 -0.197449 -2.949089 -4.705320 4.225947 -4.971658 -0.496433 -3.145963 2.801361 0.021667 -0.023758 0.050769 -1.168659 -1.463932 5.030068 0.415115 -1.219617 6.265090 0.000000 0.000000 0.000000 0.285857 -0.454494 2.376811 3.707535 0.243139 -4.532268 -7.307895 23.554848 -37.677823 -2.487289 -42.614687 -3.747144 0.000000 0.000000 0.000000 -3.071621 0.200375 1.950657 9.749007 -9.716673 -8.579582 19.839849 -30.204678 -34.450812 -1.106379 38.033823 -4.273897 0.000000 0.000000 0.000000 
-0.853234 36.480656 31.160046 179.987724 1.421592 -179.927100 -2.308497 -4.399739 9.533236 -10.565247 -0.656394 -16.928841 11.715318 8.940090 16.887235 -1.651897 -2.824161 10.543608 0.000000 0.000000 0.000000 2.829482 -1.912032 6.855647 -3.849939 5.227296 -12.548441 -7.959644 2.091247 18.306099 6.636249 4.356433 7.808457 0.000000 0.000000 0.000000 1.257127 -0.196174 -2.903703 -4.759067 4.257646 -4.991004 -0.523188 -3.099234 2.796116 -0.003708 0.018099 0.049115 -1.077537 -1.385837 5.022870 0.387026 -1.152214 6.312121 0.000000 0.000000 0.000000 0.383501 -0.470574 2.396652 3.711641 0.220436 -4.623054 -7.396261 23.572175 -37.594526 -2.397544 -42.664333 -3.740522 0.000000 0.000000 0.000000 -2.974757 0.161229 1.938474 9.802410 -9.696435 -8.554937 19.847684 -30.303466 -34.387397 -1.138499 37.982016 -4.265530 0.000000 0.000000 0.000000 
-0.867866 36.480881 31.157341 179.989036 1.388600 -179.943342 -2.315552 -4.404722 9.567504 -10.582532 -0.696440 -16.942769 11.730697 8.950662 16.891080 -1.624658 -2.786492 10.568563 0.000000 0.000000 0.000000 2.851719 -1.940328 6.863124 -3.882604 5.244601 -12.539929 -7.954760 2.153213 18.294887 6.646294 4.368020 7.800631 0.000000 0.000000 0.000000 1.238172 -0.230338 -2.841557 -4.768892 4.249027 -5.011413 -0.514678 -3.113538 2.794671 -0.009363 -0.003999 0.045743 -1.059867 -1.320753 4.994259 0.437583 -1.165665 6.415473 0.000000 0.000000 0.000000 0.410620 -0.435480 2.371346 3.653064 0.222463 -4.519226 -7.406649 23.551515 -37.505658 -2.303345 -42.663332 -3.698303 0.000000 0.000000 0.000000 -2.967264 0.182665 1.950799 9.852990 -9.595853 -8.538937 19.914190 -30.400916 -34.364027 -1.158547 37.940178 -4.238872 0.000000 0.000000 0.000000 
-0.887539 36.480316 31.151474 -179.900708 1.368917 -179.889575 -2.203972 -4.411480 9.572120 -10.618104 -0.730090 -16.996837 11.742995 8.963610 16.897041 -1.572461 -2.739440 10.605490 0.000000 0.000000 0.000000 2.989055 -1.945799 6.846477 -3.925331 5.272711 -12.556218 -7.936288 2.272833 18.308291 6.624955 4.367035 7.757873 0.000000 0.000000 0.000000 1.288794 -0.265291 -2.828564 -4.717975 4.245927 -5.046153 -0.494679 -3.115934 2.801135 -0.010457 -0.022980 0.036121 -1.078674 -1.146871 4.966727 0.465409 -1.198254 6.468747 0.000000 0.000000 0.000000 0.385115 -0.389591 2.359645 3.584727 0.219386 -4.330031 -7.453073 23.578503 -37.363136 -2.166757 -42.727464 -3.663830 0.000000 0.000000 0.000000 -2.990235 0.253402 1.953642 9.935028 -9.398361 -8.463275 20.012087 -30.536666 -34.301753 -1.173386 37.918150 -4.200275 0.000000 0.000000 0.000000 
